<?xml version="1.0" standalone="no"?>
<!DOCTYPE svg PUBLIC "-//W3C//DTD SVG 20010904//EN"
 "http://www.w3.org/TR/2001/REC-SVG-20010904/DTD/svg10.dtd">
<svg version="1.0" xmlns="http://www.w3.org/2000/svg"
 width="1024.000000pt" height="1024.000000pt" viewBox="0 0 1024.000000 1024.000000"
 preserveAspectRatio="xMidYMid meet">

<g transform="translate(0.000000,1024.000000) scale(0.100000,-0.100000)"
fill="#000000" stroke="none">
<path d="M5155 8905 c-2 -5 -13 -107 -25 -225 -11 -118 -24 -228 -27 -243 -8
-39 -56 -84 -104 -97 l-39 -11 0 -79 0 -80 31 0 c66 0 120 22 174 72 81 74 93
107 116 320 11 101 22 188 24 193 3 10 160 3 170 -7 3 -2 -7 -123 -20 -269
-14 -145 -25 -273 -25 -285 0 -19 7 -22 81 -28 45 -4 84 -4 87 -2 4 5 41 594
42 677 l0 36 -241 19 c-157 12 -242 16 -244 9z"/>
<path d="M4440 8878 c-128 -15 -250 -101 -307 -216 -25 -51 -28 -68 -28 -157
0 -93 2 -105 32 -166 62 -125 174 -199 314 -207 259 -15 450 191 409 442 -15
92 -54 168 -113 221 -79 72 -178 99 -307 83z m103 -149 c96 -26 162 -137 155
-260 -7 -124 -84 -194 -215 -194 -63 0 -76 3 -114 30 -77 54 -117 173 -90 270
20 75 90 139 171 156 51 10 51 10 93 -2z"/>
<path d="M5905 8828 c-60 -261 -154 -682 -152 -684 11 -11 326 -64 376 -64
151 1 241 101 229 257 -8 114 -87 182 -256 219 -42 9 -78 18 -80 19 -1 1 9 53
23 115 14 62 25 116 25 120 0 4 -28 13 -62 19 -35 7 -71 14 -80 17 -12 4 -19
-2 -23 -18z m217 -415 c80 -32 103 -110 49 -164 -21 -21 -39 -29 -65 -29 -43
0 -138 19 -150 30 -8 8 -1 48 26 154 l9 38 47 -7 c25 -4 63 -14 84 -22z"/>
<path d="M3649 8692 l-275 -86 24 -65 c13 -36 25 -67 26 -68 1 -2 44 11 95 28
51 17 94 29 97 26 3 -3 41 -124 84 -268 74 -251 79 -264 102 -262 39 2 138 34
138 44 0 5 -36 127 -80 271 -44 144 -77 265 -73 269 5 4 44 17 88 29 44 11 85
23 92 25 9 3 6 21 -9 67 -11 35 -23 66 -27 69 -3 3 -130 -32 -282 -79z"/>
<path d="M6656 8652 c-8 -14 -245 -623 -248 -638 -3 -14 57 -45 131 -69 15 -5
26 15 70 130 29 74 56 135 59 135 4 0 62 -21 129 -46 l121 -47 -20 -51 c-39
-97 -88 -221 -88 -222 0 -4 152 -65 154 -62 2 2 231 565 263 644 4 10 -121 73
-142 71 -5 -1 -31 -53 -58 -116 -26 -63 -51 -119 -56 -124 -13 -13 -251 83
-251 100 0 10 53 157 85 234 5 14 -8 22 -69 42 -42 14 -78 22 -80 19z"/>
<path d="M3029 8457 c-159 -67 -239 -178 -239 -331 1 -240 198 -434 406 -399
163 28 294 141 318 274 9 51 -3 101 -23 95 -139 -38 -129 -32 -136 -79 -10
-54 -72 -119 -133 -137 -83 -26 -171 27 -229 137 -38 72 -47 121 -33 175 29
108 169 176 244 117 l26 -20 60 47 c35 28 60 54 58 63 -2 8 -25 29 -52 46 -43
26 -60 30 -130 33 -67 2 -91 -2 -137 -21z"/>
<path d="M7401 8227 c-178 -283 -312 -510 -304 -516 26 -22 251 -156 300 -178
81 -38 145 -37 209 3 66 40 107 107 112 184 8 106 -32 171 -160 255 -40 27
-75 50 -77 51 -2 2 25 52 61 112 57 95 63 110 49 119 -9 6 -41 24 -71 41 l-55
31 -64 -102z m60 -345 c99 -63 128 -143 73 -199 -21 -21 -32 -25 -65 -20 -39
5 -159 74 -159 91 0 8 63 118 83 144 13 17 17 16 68 -16z"/>
<path d="M2271 7995 c-45 -36 -81 -70 -81 -76 0 -14 231 -693 238 -701 4 -4
37 16 74 43 l67 50 -25 67 c-21 55 -23 68 -12 77 8 5 51 39 97 74 l83 63 59
-41 c32 -22 60 -41 63 -41 15 0 146 104 139 110 -10 9 -593 423 -610 433 -6 4
-46 -21 -92 -58z m214 -232 c58 -42 105 -79 105 -82 0 -3 -29 -27 -63 -53 -45
-34 -64 -44 -69 -34 -7 12 -88 236 -88 243 0 9 19 -3 115 -74z"/>
<path d="M7821 7690 c-111 -148 -204 -276 -206 -283 -2 -6 25 -34 61 -61 55
-42 68 -47 75 -34 19 34 181 267 286 412 l112 154 -57 39 c-31 21 -60 39 -63
41 -4 2 -97 -119 -208 -268z"/>
<path d="M8531 7787 c-21 -54 -23 -94 -6 -133 24 -58 72 -102 129 -119 57 -17
100 -12 136 15 l25 19 -32 33 c-27 27 -39 32 -73 30 -54 -4 -90 30 -90 85 0
33 -6 42 -40 66 l-40 28 -9 -24z"/>
<path d="M8174 7569 c-82 -89 -188 -205 -237 -257 l-87 -96 57 -60 c32 -33 59
-62 60 -65 2 -2 14 1 28 7 19 9 370 111 480 139 11 3 -55 -71 -148 -163 l-167
-169 53 -53 52 -52 155 158 c85 86 195 198 244 249 l89 92 -26 33 c-14 18 -39
48 -54 66 l-29 34 -84 -22 c-46 -12 -158 -44 -249 -71 -90 -27 -168 -48 -173
-47 -5 2 60 76 146 164 l155 161 -58 57 -57 57 -150 -162z"/>
<path d="M5155 7693 c-327 -15 -634 -76 -914 -179 -216 -80 -513 -245 -648
-361 -61 -52 -71 -91 -29 -118 28 -19 49 -12 96 30 108 95 365 242 560 318
318 126 604 183 960 194 221 6 356 -3 582 -39 133 -21 138 -21 158 -3 35 31
25 76 -22 94 -71 27 -526 76 -648 69 -19 -1 -62 -3 -95 -5z"/>
<path d="M1795 7570 l-59 -60 94 -95 94 -94 -59 -63 c-33 -35 -73 -75 -89 -91
l-30 -27 -93 92 -92 92 -59 -55 c-33 -30 -59 -58 -58 -62 1 -5 114 -120 251
-258 l250 -249 60 60 60 60 -110 110 -110 110 91 91 92 91 111 -108 111 -109
56 63 57 64 -249 249 c-137 137 -251 249 -254 249 -3 0 -32 -27 -65 -60z"/>
<path d="M6390 7609 c-111 -22 -208 -99 -258 -207 -23 -49 -27 -71 -27 -152 0
-82 4 -103 26 -151 36 -75 86 -130 156 -167 229 -121 488 2 534 256 37 197
-104 389 -309 423 -64 10 -60 10 -122 -2z m188 -125 c108 -54 163 -161 143
-276 -18 -102 -75 -174 -164 -207 -41 -16 -152 -13 -192 3 -98 41 -166 143
-164 245 1 67 14 105 55 164 67 94 211 126 322 71z"/>
<path d="M5050 7364 c-199 -25 -408 -76 -575 -141 -119 -47 -152 -86 -107
-126 25 -23 50 -21 113 7 154 67 388 126 588 147 139 14 419 7 546 -15 122
-21 152 -20 165 3 31 58 2 83 -125 106 -87 17 -517 30 -605 19z"/>
<path d="M2985 6876 c-224 -38 -407 -115 -584 -246 -321 -238 -543 -593 -617
-985 -28 -148 -26 -422 5 -565 46 -217 137 -430 270 -633 95 -145 164 -230
296 -366 177 -182 345 -307 540 -401 310 -150 575 -169 920 -65 129 39 271 45
386 16 129 -33 182 -63 292 -170 l99 -96 -39 -34 c-195 -173 -231 -211 -248
-262 -36 -108 -9 -162 167 -336 142 -140 177 -163 255 -163 72 0 116 28 261
166 l133 126 137 -134 c117 -115 146 -138 191 -153 61 -20 118 -17 175 10 22
10 101 80 176 154 128 126 139 140 150 188 25 111 -4 166 -166 315 -60 55
-109 103 -109 108 0 18 209 199 264 229 80 42 197 71 290 71 80 0 156 -15 284
-56 133 -41 255 -57 412 -51 347 13 647 157 967 465 342 330 548 677 628 1057
27 129 37 385 21 510 -46 347 -199 663 -435 899 -194 193 -393 308 -645 371
-389 97 -796 24 -1149 -208 -408 -268 -747 -665 -872 -1022 -60 -172 -71 -236
-77 -435 -6 -217 4 -295 66 -493 51 -161 65 -242 58 -331 -13 -156 -77 -263
-255 -421 l-105 -94 -56 48 c-144 125 -207 226 -237 376 -21 109 -13 172 46
345 61 178 86 282 101 425 44 413 -112 833 -448 1208 -289 322 -643 536 -1021
618 -125 26 -409 35 -527 15z m2542 -2027 c142 -141 179 -179 172 -179 -2 0
-76 73 -164 162 -88 89 -157 160 -153 158 3 -3 69 -66 145 -141z m-683 -36
c-3 -16 -29 -98 -57 -183 -50 -151 -51 -158 -51 -270 0 -63 5 -133 12 -154 6
-22 10 -41 9 -43 -3 -2 -244 211 -292 258 -19 19 -18 21 180 219 110 110 201
200 203 200 1 0 0 -12 -4 -27z m995 -369 c0 -10 -269 -238 -274 -232 -2 2 3
28 12 57 11 40 14 82 11 165 -4 98 -10 125 -46 230 -23 66 -42 122 -42 125 0
3 77 -71 170 -165 94 -93 170 -174 169 -180z m-104 206 c16 -17 16 -20 3 -15
-9 4 -19 13 -22 21 -7 19 -2 18 19 -6z m61 -62 l29 -33 -32 29 c-18 17 -33 31
-33 33 0 8 8 1 36 -29z m266 -264 c123 -122 232 -232 243 -245 11 -13 -92 86
-228 221 -136 134 -247 247 -247 249 0 2 2 2 4 0 3 -2 105 -104 228 -225z
m-982 -575 c532 -473 733 -656 758 -692 27 -38 29 -90 5 -134 -10 -17 -71 -81
-136 -142 -130 -121 -155 -134 -230 -111 -36 10 -140 110 -735 703 l-693 692
163 156 163 156 175 -157 c96 -86 335 -298 530 -471z m985 467 l153 -153 -316
-322 -317 -323 -125 113 c-69 62 -158 142 -197 179 l-72 66 141 120 c189 159
571 474 576 474 1 0 72 -69 157 -154z m-1800 -504 c-2 -2 -19 1 -37 7 -114 40
-253 33 -458 -23 l-122 -33 168 168 169 169 142 -142 c78 -78 140 -144 138
-146z m2197 115 c92 -88 166 -162 165 -164 -2 -1 -61 14 -132 33 -161 44 -324
56 -420 31 -32 -9 -61 -15 -63 -13 -1 2 59 67 134 145 75 78 140 139 143 135
3 -3 81 -78 173 -167z m8 87 c0 -3 -7 -1 -15 6 -8 7 -15 17 -15 22 0 5 7 3 15
-6 8 -8 15 -18 15 -22z m71 -71 c13 -16 12 -17 -3 -4 -10 7 -18 15 -18 17 0 8
8 3 21 -13z m92 -83 c16 -16 26 -30 23 -30 -2 0 -20 14 -38 30 -18 17 -28 30
-23 30 6 0 23 -13 38 -30z m61 -69 c-2 -3 -12 3 -22 13 -16 17 -16 18 5 5 12
-7 20 -15 17 -18z m86 -86 c30 -30 52 -55 49 -55 -2 0 -29 25 -59 55 -30 30
-52 55 -49 55 2 0 29 -25 59 -55z m-1850 -797 c-128 -123 -165 -148 -222 -148
-28 0 -50 18 -175 143 -139 139 -143 144 -143 185 0 24 7 56 15 71 7 15 71 79
141 140 l127 113 191 -192 191 -191 -125 -121z"/>
<path d="M8702 4387 c-6 -7 -19 -58 -27 -113 -119 -743 -492 -1448 -1049
-1981 -97 -94 -110 -117 -80 -147 34 -34 55 -20 219 146 503 510 823 1095 975
1783 61 277 61 325 1 325 -16 0 -33 -6 -39 -13z"/>
<path d="M1580 4365 c-16 -19 -8 -95 26 -260 138 -659 450 -1262 897 -1733
127 -133 296 -291 322 -301 41 -16 83 18 70 58 -3 10 -42 50 -88 88 -360 310
-701 780 -892 1233 -110 258 -208 606 -240 848 -4 29 -14 59 -22 67 -19 19
-57 19 -73 0z"/>
<path d="M3210 2649 c-17 -33 -30 -62 -28 -64 2 -1 42 -24 91 -50 48 -26 87
-49 87 -53 0 -7 -136 -264 -209 -396 -34 -60 -61 -112 -61 -116 0 -4 31 -24
69 -44 53 -27 71 -33 78 -23 6 6 65 120 133 252 67 132 126 244 130 249 5 5
47 -13 95 -39 48 -26 88 -45 90 -43 10 12 67 120 64 122 -2 2 -87 47 -189 101
-102 53 -212 113 -246 131 -33 19 -63 34 -66 34 -3 0 -20 -27 -38 -61z"/>
<path d="M6877 2609 c-94 -22 -191 -99 -235 -184 -59 -117 -32 -308 62 -427
34 -42 61 -64 113 -90 60 -29 76 -33 148 -32 101 0 175 28 244 90 69 62 105
138 105 220 0 35 -3 66 -6 69 -3 4 -37 -6 -74 -22 l-69 -28 -7 -49 c-8 -54
-33 -88 -90 -117 -129 -66 -284 62 -296 246 -3 61 -1 74 20 104 46 67 140 91
203 52 l31 -18 59 52 c68 61 67 68 -19 109 -59 28 -135 39 -189 25z"/>
<path d="M3753 2048 l-110 -343 26 -12 c37 -17 422 -145 426 -141 1 2 12 31
23 66 15 46 18 64 9 67 -7 2 -72 24 -146 49 -73 25 -135 47 -138 50 -4 4 34
133 42 143 1 2 61 -17 134 -42 92 -31 133 -40 136 -32 38 105 42 127 23 127
-6 0 -64 18 -129 41 l-117 41 20 61 c11 34 24 66 28 70 4 5 67 -12 140 -37 72
-25 135 -46 140 -46 5 0 16 24 26 53 9 28 19 57 21 63 3 8 -76 39 -209 84
-117 39 -218 74 -223 76 -6 2 -58 -143 -122 -338z"/>
<path d="M6330 2328 l-66 -20 -63 -236 c-35 -130 -67 -243 -71 -250 -6 -12
-33 84 -96 341 -12 49 -21 67 -33 67 -21 -1 -132 -27 -138 -34 -3 -3 173 -668
182 -683 1 -2 37 8 81 22 l79 24 64 253 c35 139 66 256 70 260 4 4 33 -91 66
-212 32 -121 64 -220 70 -220 26 0 135 43 135 53 0 6 -36 137 -79 291 -44 155
-84 300 -91 324 -12 48 -15 49 -110 20z"/>
<path d="M4430 2203 c0 -8 -45 -357 -74 -578 -8 -60 -12 -113 -8 -116 6 -6
144 -29 149 -25 1 0 11 70 24 154 13 87 27 152 33 152 30 -1 237 -38 243 -43
3 -4 -3 -71 -14 -149 -11 -79 -20 -144 -19 -145 1 -1 36 -5 78 -9 l76 -7 6 44
c30 224 85 664 83 665 -1 1 -36 5 -78 9 l-76 7 -15 -132 c-9 -72 -18 -133 -20
-135 -3 -4 -251 25 -256 30 -1 1 6 59 16 129 20 141 24 128 -53 140 -22 4 -52
9 -67 12 -16 3 -28 2 -28 -3z"/>
<path d="M5651 2178 c-41 -4 -76 -9 -77 -11 -2 -2 0 -63 4 -136 4 -73 5 -134
2 -136 -3 -2 -60 -6 -127 -10 l-121 -7 -6 83 c-3 46 -7 106 -9 134 l-2 50 -80
-3 c-44 -2 -81 -5 -82 -6 -1 -1 4 -98 12 -216 7 -118 17 -277 21 -352 l7 -138
31 0 c17 0 54 3 81 6 l50 6 -9 144 c-5 80 -7 147 -4 149 4 5 241 23 246 20 2
-2 8 -70 14 -153 l11 -151 61 5 c97 8 104 11 100 36 -2 13 -13 174 -24 357
-11 184 -22 335 -23 336 -1 1 -35 -3 -76 -7z"/>
</g>
</svg>
